# xmcd CD database file generated by Grip 3.2.0
# 
# Track frame offsets:
#       150
#       12340
#       22040
#       36763
#       49630
#       60583
#       74900
#       86810
#       97315
#       108488
#       115098
#       130285
#       140705
#       158138
# 
# Disc length: 2316 seconds
# 
# Revision: 1
# Processed by: cddbd v1.5.1PL0 Copyright (c) Steve Scherf et al.
# Submitted via: Grip 3.2.0
# 
DISCID=ce090a0e
DTITLE=Shady Grove Band - Mulberry Moon
DYEAR=1990
DGENRE=Bluegrass
TTITLE0=Forty Years of Trouble
TTITLE1=Paddy's Hollow
TTITLE2=The Willow Tree Weeps No More For Me
TTITLE3=You'll Find Her Name Written There
TTITLE4=Mansion in the Sky
TTITLE5=Blue Blue Ridge
TTITLE6=I Love You, Honey
TTITLE7=Mulberry Moon
TTITLE8=I've Got Some Thinking To Do
TTITLE9=Rise Up
TTITLE10=Down The Devil's Road
TTITLE11=Just Plain Yellow
TTITLE12=Crossties
TTITLE13=Movin' On
EXTD=
EXTT0=
EXTT1=
EXTT2=
EXTT3=
EXTT4=
EXTT5=
EXTT6=
EXTT7=
EXTT8=
EXTT9=
EXTT10=
EXTT11=
EXTT12=
EXTT13=
PLAYORDER=
